<?xml version="1.0" encoding="utf-8"?>
<!-- Generator: Adobe Illustrator 16.0.4, SVG Export Plug-In . SVG Version: 6.00 Build 0)  -->
<!DOCTYPE svg PUBLIC "-//W3C//DTD SVG 1.1//EN" "http://www.w3.org/Graphics/SVG/1.1/DTD/svg11.dtd">
<svg version="1.1" id="Layer_1" xmlns="http://www.w3.org/2000/svg" xmlns:xlink="http://www.w3.org/1999/xlink" x="0px" y="0px"
	 width="50px" height="50px" viewBox="0 0 50 50" enable-background="new 0 0 50 50" xml:space="preserve">
<g>
	<g>
		<path d="M21.783,8.583c-3.31,0-5.99,2.682-5.99,5.991c0,3.309,2.682,5.991,5.99,5.991c3.308,0,5.99-2.682,5.99-5.991
			C27.773,11.265,25.092,8.583,21.783,8.583z M21.783,19.833c-2.904,0-5.26-2.355-5.26-5.26c0-2.905,2.354-5.26,5.26-5.26
			c2.906,0,5.26,2.355,5.26,5.26C27.043,17.478,24.689,19.833,21.783,19.833z"/>
		<path d="M23.678,14.472c-0.289-0.198-0.836-0.41-1.641-0.636v-2.538c0.479,0.018,0.828,0.202,1.047,0.553
			c0.117,0.191,0.189,0.418,0.213,0.682h0.912c-0.018-0.589-0.211-1.062-0.58-1.421c-0.371-0.359-0.902-0.562-1.592-0.611V9.818
			h-0.496v0.693c-0.699,0.007-1.24,0.222-1.629,0.646c-0.387,0.424-0.58,0.9-0.58,1.428c0,0.591,0.18,1.053,0.539,1.386
			s0.916,0.572,1.67,0.714v2.84c-0.588-0.049-0.99-0.269-1.207-0.662c-0.123-0.219-0.197-0.566-0.227-1.042h-0.922
			c0,0.598,0.1,1.072,0.297,1.422c0.36,0.65,1.049,1.008,2.059,1.074v1.011h0.496v-1.011c0.629-0.07,1.109-0.212,1.443-0.427
			c0.6-0.389,0.899-1.045,0.899-1.97C24.381,15.281,24.146,14.798,23.678,14.472z M21.541,13.737
			c-0.389-0.076-0.697-0.212-0.928-0.406c-0.229-0.195-0.345-0.464-0.345-0.808c0-0.285,0.099-0.558,0.291-0.818
			c0.195-0.261,0.521-0.399,0.98-0.417L21.541,13.737L21.541,13.737z M23.266,16.9c-0.225,0.407-0.635,0.624-1.229,0.651V14.81
			c0.434,0.118,0.742,0.243,0.926,0.375c0.32,0.226,0.48,0.556,0.48,0.99C23.443,16.451,23.385,16.692,23.266,16.9z"/>
	</g>
	<g>
		<path d="M17.662,23.626l0.334,0.942c2.542-0.899,5.352-0.909,7.909-0.027l0.326-0.945C23.461,22.641,20.417,22.65,17.662,23.626z"
			/>
		<path d="M40.497,29.471l-0.027-0.438l-0.438-0.029c-0.374-0.025-0.832-0.009-1.251,0.007c-0.233,0.009-0.493,0.021-0.678,0.017
			c-0.968-1.815-2.307-3.166-3.986-4.018c0.067-0.931,0.226-1.804,0.729-2.22l0.969-0.799l-1.253-0.086
			c-1.79-0.115-3.257,0.993-4.13,1.882c-1.845-1.614-5.053-2.599-8.549-2.599c-0.008,0-0.017,0-0.024,0
			c-3.45,0.005-6.602,0.948-8.93,2.632l-0.465-0.316c-0.578-0.394-1.217-0.427-1.755-0.084c-0.843,0.538-1.192,1.793-1.044,2.697
			c0.081,0.49,0.299,0.882,0.623,1.139c-1.216,2.23-1.185,5.83,0.722,7.615c0.279,2.346,0.727,4.72,1.987,6.352l0.149,0.194h4.726
			L17.8,40.854c-0.074-0.576-0.157-1.213-0.146-1.896c2.185,0.428,4.736,0.561,7.293,0.378c0.385,0.644,0.782,1.308,1.264,1.897
			l0.15,0.184h4.108l0.566-0.05l-0.078-0.568c-0.119-0.868-0.241-1.762-0.085-2.614c1.238-0.3,5.765-1.576,8.902-4.844h0.001
			C40.53,32.555,40.611,31.277,40.497,29.471z M39.056,32.648c-3.431,3.572-8.644,4.617-8.694,4.627l-0.31,0.06l-0.08,0.304
			c-0.249,0.938-0.188,1.856-0.071,2.778h-3.06c-0.376-0.493-0.703-1.039-1.047-1.613l-0.309-0.514l-0.311,0.024
			c-2.784,0.229-5.583,0.066-7.878-0.455l-0.554-0.125L16.688,38.3c-0.074,0.769-0.022,1.489,0.049,2.118h-3.093
			c-1.037-1.484-1.414-3.684-1.664-5.852l-0.023-0.196l-0.151-0.128c-1.739-1.467-1.673-5.079-0.398-6.898l0.419-0.597l-0.708-0.175
			c-0.253-0.062-0.409-0.271-0.466-0.617c-0.06-0.354,0.008-0.765,0.15-1.104c-0.035,0.156-0.032,0.305,0.012,0.448
			c0.064,0.212,0.278,0.576,0.98,0.63l0.235,0.019l0.164-0.172c2.177-2.273,5.698-3.582,9.664-3.586c0.008,0,0.016,0,0.023,0
			c3.488,0,6.633,1.017,8.211,2.657l0.379,0.394l0.358-0.412c0.528-0.606,1.491-1.527,2.678-1.831
			c-0.278,0.667-0.369,1.479-0.412,2.29l-0.019,0.339l0.309,0.142c1.719,0.791,3.012,2.086,3.953,3.961l0.11,0.221l0.243,0.046
			c0.24,0.047,0.586,0.036,1.123,0.016c0.23-0.008,0.475-0.018,0.707-0.019C39.574,31.117,39.521,32.163,39.056,32.648
			L39.056,32.648z"/>
		<circle cx="34.08" cy="28.749" r="0.846"/>
	</g>
</g>
</svg>
