<?xml version="1.0" encoding="utf-8"?>
<!-- Generator: Adobe Illustrator 17.1.0, SVG Export Plug-In . SVG Version: 6.00 Build 0)  -->
<!DOCTYPE svg PUBLIC "-//W3C//DTD SVG 1.1//EN" "http://www.w3.org/Graphics/SVG/1.1/DTD/svg11.dtd">
<svg version="1.1" id="Layer_1" xmlns="http://www.w3.org/2000/svg" xmlns:xlink="http://www.w3.org/1999/xlink" x="0px" y="0px"
	 width="1000px" height="1000px" viewBox="0 0 1000 1000" enable-background="new 0 0 1000 1000" xml:space="preserve">
<g>
	<path fill="#1E120D" d="M976.248,398.147c7.381-18.243,9.708-39.522,7.685-59.023c-2.389-23.027-9.119-45.415-22.122-64.788
		l-56.989,33.311l8.032,14.134c2.294,6.217,4.028,12.583,5.217,19.102c0.603,6.66,0.633,13.323,0.062,19.99
		c-1.114,6.141-2.742,12.138-4.904,17.992c-2.689,5.602-5.833,10.933-9.413,16.01c-2.575,3.054-5.315,5.944-8.185,8.706
		c-0.305-0.604-0.604-1.208-0.914-1.811c-21.883-42.615-53.066-80.769-92.683-113.4c-80.152-66.02-186.322-102.378-298.953-102.378
		c-32.851,0-65.204,3.13-96.47,9.32c-23.121-24.656-53.464-43.06-90.503-54.852c-31.458-10.015-67.152-15.092-106.089-15.092
		c-34.625,0-59.442,4.163-60.481,4.34l-38.084,6.493l58.874,192.861c-15.449,18.177-28.854,37.629-40.053,58.124L20.103,418.219
		v249.663l110.18,31.036c22.93,41.896,55.296,79.605,94.803,110.489l-17.792,134.695h242.288l31.092-44.482
		c7.457,0.325,14.946,0.489,22.409,0.489c31.94,0,63.632-2.955,94.52-8.8l34.667,52.793h242.922l-25.508-193.001
		c23.425-27.354,42.026-57.223,55.397-88.983c16.067-38.165,24.214-78.225,24.214-119.067c0-25.562-3.165-50.706-9.433-75.249
		c7.997-5.045,15.523-10.879,22.591-17.592C957.863,435.57,968.358,417.648,976.248,398.147z M789.103,716.846l-10.986,11.742
		l19.497,147.515H668.967l-40.428-61.566l-23.249,5.594c-33.041,7.949-67.429,11.979-102.208,11.979
		c-12.217,0-24.505-0.506-36.525-1.503l-19.48-1.616l-32.93,47.112H284.866l12.965-98.151l-16.951-11.835
		c-42.254-29.5-75.666-67.822-96.624-110.822l-6.676-13.699L88.103,616.39V469.711l89.478-25.205l6.676-13.699
		c12.288-25.212,28.719-48.726,48.836-69.887l13.669-14.378l-46.718-153.04c3.193-0.086,6.524-0.135,9.976-0.135
		c31.479,0,61.031,4.111,85.461,11.888c31.267,9.954,55.029,25.975,70.626,47.619l13.422,18.625l22.292-5.49
		c32.383-7.975,66.453-12.019,101.261-12.019c197.519,0,358.212,129.671,358.212,289.06
		C861.295,606.269,836.332,666.365,789.103,716.846z"/>
	<circle fill="#1E120D" cx="303.032" cy="435" r="34.559"/>
	<path fill="#1E120D" d="M455.468,297.084l14.971,66.332c0.237-0.054,24.732-5.33,58.509-3.904
		c31.125,1.313,76.368,8.789,115.149,36.946l39.951-55.026C584.392,269.077,460.686,295.906,455.468,297.084z"/>
</g>
</svg>
